<mxfile host="app.diagrams.net" modified="2023-10-20T21:33:35.023Z" agent="Mozilla/5.0 (Windows NT 10.0; Win64; x64) AppleWebKit/537.36 (KHTML, like Gecko) Chrome/118.0.0.0 Safari/537.36" etag="cOQ5uUKaeoqNr9ZLkFfT" version="22.0.6" type="github">
  <diagram name="PÃ¡gina-1" id="hBUwLC2IuBWJGV8TWu46">
    <mxGraphModel dx="880" dy="478" grid="1" gridSize="10" guides="1" tooltips="1" connect="1" arrows="1" fold="1" page="1" pageScale="1" pageWidth="827" pageHeight="1169" math="0" shadow="0">
      <root>
        <mxCell id="0" />
        <mxCell id="1" parent="0" />
        <mxCell id="5m0ddqCzGyTzGLBYoEIz-1" value="" style="rounded=0;whiteSpace=wrap;html=1;" vertex="1" parent="1">
          <mxGeometry x="101.5" y="100" width="625" height="390" as="geometry" />
        </mxCell>
        <mxCell id="5m0ddqCzGyTzGLBYoEIz-423" value="&lt;font style=&quot;font-size: 16px;&quot;&gt;Computador&lt;/font&gt;" style="text;html=1;strokeColor=none;fillColor=none;align=center;verticalAlign=middle;whiteSpace=wrap;rounded=0;" vertex="1" parent="1">
          <mxGeometry x="384" y="60" width="60" height="30" as="geometry" />
        </mxCell>
        <mxCell id="5m0ddqCzGyTzGLBYoEIz-425" value="" style="rounded=0;whiteSpace=wrap;html=1;" vertex="1" parent="1">
          <mxGeometry x="101" y="100" width="625" height="60" as="geometry" />
        </mxCell>
        <mxCell id="5m0ddqCzGyTzGLBYoEIz-427" value="" style="rounded=1;whiteSpace=wrap;html=1;" vertex="1" parent="1">
          <mxGeometry x="120" y="110" width="94" height="40" as="geometry" />
        </mxCell>
        <mxCell id="5m0ddqCzGyTzGLBYoEIz-428" value="logo" style="text;html=1;strokeColor=none;fillColor=none;align=center;verticalAlign=middle;whiteSpace=wrap;rounded=0;" vertex="1" parent="1">
          <mxGeometry x="137" y="115" width="60" height="30" as="geometry" />
        </mxCell>
        <mxCell id="5m0ddqCzGyTzGLBYoEIz-429" value="sobre" style="text;html=1;strokeColor=none;fillColor=none;align=center;verticalAlign=middle;whiteSpace=wrap;rounded=0;" vertex="1" parent="1">
          <mxGeometry x="400" y="120" width="60" height="30" as="geometry" />
        </mxCell>
        <mxCell id="5m0ddqCzGyTzGLBYoEIz-430" value="projetos" style="text;html=1;strokeColor=none;fillColor=none;align=center;verticalAlign=middle;whiteSpace=wrap;rounded=0;" vertex="1" parent="1">
          <mxGeometry x="510" y="120" width="60" height="30" as="geometry" />
        </mxCell>
        <mxCell id="5m0ddqCzGyTzGLBYoEIz-431" value="contato" style="text;html=1;strokeColor=none;fillColor=none;align=center;verticalAlign=middle;whiteSpace=wrap;rounded=0;" vertex="1" parent="1">
          <mxGeometry x="620" y="120" width="60" height="30" as="geometry" />
        </mxCell>
        <mxCell id="5m0ddqCzGyTzGLBYoEIz-432" value="&lt;h1 style=&quot;font-size: 17px;&quot;&gt;&lt;font style=&quot;font-size: 17px;&quot;&gt;Heading&lt;/font&gt;&lt;/h1&gt;&lt;p style=&quot;font-size: 17px;&quot;&gt;&lt;font style=&quot;font-size: 17px;&quot;&gt;Lorem ipsum dolor sit amet, consectetur adipisicing elit, sed do eiusmod tempor incididunt ut labore et dolore magna aliqua.&lt;/font&gt;&lt;/p&gt;" style="text;html=1;strokeColor=none;fillColor=none;spacing=5;spacingTop=-20;whiteSpace=wrap;overflow=hidden;rounded=0;" vertex="1" parent="1">
          <mxGeometry x="121" y="170" width="263" height="160" as="geometry" />
        </mxCell>
        <mxCell id="5m0ddqCzGyTzGLBYoEIz-433" value="" style="whiteSpace=wrap;html=1;aspect=fixed;" vertex="1" parent="1">
          <mxGeometry x="137" y="300" width="180" height="180" as="geometry" />
        </mxCell>
        <mxCell id="5m0ddqCzGyTzGLBYoEIz-434" value="imagem" style="text;html=1;strokeColor=none;fillColor=none;align=center;verticalAlign=middle;whiteSpace=wrap;rounded=0;" vertex="1" parent="1">
          <mxGeometry x="197" y="375" width="60" height="30" as="geometry" />
        </mxCell>
        <mxCell id="5m0ddqCzGyTzGLBYoEIz-435" value="&lt;font style=&quot;font-size: 17px;&quot;&gt;&lt;b&gt;Alguns projetos&lt;/b&gt;&lt;/font&gt;" style="text;html=1;strokeColor=none;fillColor=none;align=center;verticalAlign=middle;whiteSpace=wrap;rounded=0;" vertex="1" parent="1">
          <mxGeometry x="460" y="170" width="210" height="30" as="geometry" />
        </mxCell>
        <mxCell id="5m0ddqCzGyTzGLBYoEIz-436" value="" style="whiteSpace=wrap;html=1;aspect=fixed;" vertex="1" parent="1">
          <mxGeometry x="460" y="230" width="90" height="90" as="geometry" />
        </mxCell>
        <mxCell id="5m0ddqCzGyTzGLBYoEIz-437" value="" style="whiteSpace=wrap;html=1;aspect=fixed;" vertex="1" parent="1">
          <mxGeometry x="590" y="360" width="90" height="90" as="geometry" />
        </mxCell>
        <mxCell id="5m0ddqCzGyTzGLBYoEIz-438" value="" style="whiteSpace=wrap;html=1;aspect=fixed;" vertex="1" parent="1">
          <mxGeometry x="460" y="360" width="90" height="90" as="geometry" />
        </mxCell>
        <mxCell id="5m0ddqCzGyTzGLBYoEIz-439" value="" style="whiteSpace=wrap;html=1;aspect=fixed;" vertex="1" parent="1">
          <mxGeometry x="590" y="230" width="90" height="90" as="geometry" />
        </mxCell>
        <mxCell id="5m0ddqCzGyTzGLBYoEIz-440" value="" style="rounded=0;whiteSpace=wrap;html=1;rotation=90;" vertex="1" parent="1">
          <mxGeometry x="257.5" y="870" width="345" height="175" as="geometry" />
        </mxCell>
        <mxCell id="5m0ddqCzGyTzGLBYoEIz-441" value="" style="rounded=0;whiteSpace=wrap;html=1;" vertex="1" parent="1">
          <mxGeometry x="342" y="780" width="176" height="40" as="geometry" />
        </mxCell>
        <mxCell id="5m0ddqCzGyTzGLBYoEIz-442" value="" style="rounded=1;whiteSpace=wrap;html=1;" vertex="1" parent="1">
          <mxGeometry x="350" y="790" width="57" height="20" as="geometry" />
        </mxCell>
        <mxCell id="5m0ddqCzGyTzGLBYoEIz-443" value="logo" style="text;html=1;strokeColor=none;fillColor=none;align=center;verticalAlign=middle;whiteSpace=wrap;rounded=0;" vertex="1" parent="1">
          <mxGeometry x="348.5" y="785" width="60" height="30" as="geometry" />
        </mxCell>
        <mxCell id="5m0ddqCzGyTzGLBYoEIz-444" value="" style="line;strokeWidth=1;fillColor=none;align=left;verticalAlign=middle;spacingTop=-1;spacingLeft=3;spacingRight=3;rotatable=0;labelPosition=right;points=[];portConstraint=eastwest;strokeColor=inherit;" vertex="1" parent="1">
          <mxGeometry x="490" y="794" width="13" height="8" as="geometry" />
        </mxCell>
        <mxCell id="5m0ddqCzGyTzGLBYoEIz-445" value="" style="line;strokeWidth=1;fillColor=none;align=left;verticalAlign=middle;spacingTop=-1;spacingLeft=3;spacingRight=3;rotatable=0;labelPosition=right;points=[];portConstraint=eastwest;strokeColor=inherit;" vertex="1" parent="1">
          <mxGeometry x="490" y="798" width="13" height="8" as="geometry" />
        </mxCell>
        <mxCell id="5m0ddqCzGyTzGLBYoEIz-446" value="" style="line;strokeWidth=1;fillColor=none;align=left;verticalAlign=middle;spacingTop=-1;spacingLeft=3;spacingRight=3;rotatable=0;labelPosition=right;points=[];portConstraint=eastwest;strokeColor=inherit;" vertex="1" parent="1">
          <mxGeometry x="490" y="802" width="13" height="8" as="geometry" />
        </mxCell>
        <mxCell id="5m0ddqCzGyTzGLBYoEIz-447" value="&lt;h1 style=&quot;font-size: 15px;&quot;&gt;&lt;font style=&quot;font-size: 15px;&quot;&gt;Heading&lt;/font&gt;&lt;/h1&gt;&lt;p style=&quot;font-size: 15px;&quot;&gt;&lt;font style=&quot;font-size: 15px;&quot;&gt;Lorem ipsum dolor sit amet, consectetur adipisicing elit, sed do eiusmod tempor incididunt ut labore et dolore magna aliqua.&lt;/font&gt;&lt;/p&gt;" style="text;html=1;strokeColor=none;fillColor=none;spacing=5;spacingTop=-20;whiteSpace=wrap;overflow=hidden;rounded=0;" vertex="1" parent="1">
          <mxGeometry x="414" y="940" width="126.75" height="100" as="geometry" />
        </mxCell>
        <mxCell id="5m0ddqCzGyTzGLBYoEIz-448" value="" style="whiteSpace=wrap;html=1;aspect=fixed;" vertex="1" parent="1">
          <mxGeometry x="360" y="840" width="80" height="80" as="geometry" />
        </mxCell>
      </root>
    </mxGraphModel>
  </diagram>
</mxfile>
